<svg version="1.1" viewBox="0.0 0.0 377.9527559055118 377.9527559055118" fill="none" stroke="none" stroke-linecap="square" stroke-miterlimit="10" xmlns:xlink="http://www.w3.org/1999/xlink" xmlns="http://www.w3.org/2000/svg"><clipPath id="p.0"><path d="m0 0l377.95276 0l0 377.95276l-377.95276 0l0 -377.95276z" clip-rule="nonzero"/></clipPath><g clip-path="url(#p.0)"><path fill="#000000" fill-opacity="0.0" d="m0 0l377.95276 0l0 377.95276l-377.95276 0z" fill-rule="evenodd"/><path fill="#000000" fill-opacity="0.0" d="m5.521111 33.137l366.89764 0l0 311.68506l-366.89764 0z" fill-rule="evenodd"/><path fill="#000000" d="m58.977654 45.10453l24.875 0l0 263.875l-24.875 0l0 -263.875zm57.66043 263.875l0 -263.875l24.546883 0l-2.1875 123.17187q-1.046875 -2.859375 19.84375 -14.84375q20.890625 -12.0 43.40625 -12.0q35.875 0 61.0625 25.203125q25.203125 25.203125 25.203125 60.40625q0 35.203125 -25.203125 60.40625q-25.1875 25.203125 -61.0625 25.203125q-21.84375 0 -42.5 -11.78125q-20.640625 -11.78125 -20.171875 -14.28125l1.609375 22.390625l-24.546883 0zm23.875008 -81.625q0 25.140625 18.46875 43.609375q18.46875 18.46875 43.734375 18.46875q25.265625 0 43.25 -18.4375q18.0 -18.453125 18.0 -43.78125q0 -25.34375 -18.15625 -43.953125q-18.15625 -18.609375 -43.25 -18.609375q-25.078125 0 -43.5625 18.78125q-18.484375 18.78125 -18.484375 43.921875zm194.66364 -81.921875l0 163.54688l-24.546875 0l0 -163.54688l24.546875 0zm-12.28125 -22.781242q-16.59375 0 -16.59375 -15.9375q0 -15.9375 16.59375 -15.9375q16.609375 0 16.609375 15.9375q0 15.9375 -16.609375 15.9375z" fill-rule="nonzero"/></g></svg>